<svg id="Layer_1" data-name="Layer 1" xmlns="http://www.w3.org/2000/svg" viewBox="0 0 32 20"><defs></defs><title>subtitles</title><path class="cls-1" d="M698.23,751h-26a3,3,0,0,0-3,3v14a3,3,0,0,0,3,3h26a3,3,0,0,0,3-3V754A3,3,0,0,0,698.23,751Zm-14.59,15.86A9.38,9.38,0,0,1,682,767a6.18,6.18,0,0,1-2-.32,4.37,4.37,0,0,1-1.64-1,5.08,5.08,0,0,1-1.13-1.87,7.94,7.94,0,0,1-.43-2.79,7.65,7.65,0,0,1,.47-2.85,5.25,5.25,0,0,1,1.23-1.85,4.42,4.42,0,0,1,1.68-1A5.66,5.66,0,0,1,682,755a8.87,8.87,0,0,1,1.68.14,5.82,5.82,0,0,1,1.13.31l-.45,1.92a3.42,3.42,0,0,0-.9-.27,9,9,0,0,0-1.26-.08,2.77,2.77,0,0,0-2.21,1,4.57,4.57,0,0,0-.84,3,6.33,6.33,0,0,0,.2,1.63,3.7,3.7,0,0,0,.61,1.26,2.67,2.67,0,0,0,1,.81,3.06,3.06,0,0,0,1.39.29,4.53,4.53,0,0,0,1.26-.15,3.46,3.46,0,0,0,.89-.38l.46,1.84A3.34,3.34,0,0,1,683.64,766.86Zm8.69,0a9.18,9.18,0,0,1-1.67.16,6.13,6.13,0,0,1-2-.32,4.37,4.37,0,0,1-1.64-1,5.1,5.1,0,0,1-1.14-1.87,8.19,8.19,0,0,1-.42-2.79,7.65,7.65,0,0,1,.47-2.85,5.24,5.24,0,0,1,1.22-1.85,4.58,4.58,0,0,1,1.68-1,5.76,5.76,0,0,1,1.86-.31,8.68,8.68,0,0,1,1.67.14,5.74,5.74,0,0,1,1.14.31l-.45,1.92a3.42,3.42,0,0,0-.9-.27,9,9,0,0,0-1.27-.08,2.75,2.75,0,0,0-2.2,1,4.57,4.57,0,0,0-.84,3,6.33,6.33,0,0,0,.2,1.63,3.51,3.51,0,0,0,.6,1.26,2.75,2.75,0,0,0,1,.81,3.1,3.1,0,0,0,1.4.29,4.58,4.58,0,0,0,1.26-.15,3.62,3.62,0,0,0,.89-.38l.46,1.84A3.33,3.33,0,0,1,692.33,766.86Z" transform="translate(-669.23 -751)"/></svg>