<?xml version="1.0" encoding="utf-8"?>
<!-- Generator: Adobe Illustrator 23.0.1, SVG Export Plug-In . SVG Version: 6.00 Build 0)  -->
<svg version="1.1" id="Layer_1" xmlns="http://www.w3.org/2000/svg" xmlns:xlink="http://www.w3.org/1999/xlink" x="0px" y="0px"
	 viewBox="0 0 17.5 14.7" style="enable-background:new 0 0 17.5 14.7;" xml:space="preserve">
<style type="text/css">
	.st0{fill:#FFFFFF;}
</style>
<title>twitter</title>
<g id="W6EeEF">
	<path class="st0" d="M11.3,0.2c1.4-0.5,2.9,0,3.7,1.1c0.7-0.2,1.4-0.5,2.1-0.7c0,0.7-0.3,1.3-0.9,1.7c0.5,0.1,1-0.1,1.3-0.5
		c-0.2,0.9-0.8,1.6-1.6,2c-0.2,6.6-3.3,11-10.4,10.8H5.1c-0.4,0-4.3-0.4-5-1.8c1.7,0.3,3.4-0.2,4.8-1.1c-1-0.3-2.8-0.5-3.1-2.9
		C2.2,9,2.6,9,3,8.9C1.8,8.1,0.4,7.4,0.5,5.2c0.4,0.3,0.9,0.5,1.4,0.5c-0.7-0.2-2-3.3-0.9-4.8c1.9,1.8,3.8,3.5,7.4,3.7
		C8.5,2.3,9.5,0.8,11.3,0.2z"/>
</g>
</svg>
